<svg width="10" height="14" viewBox="0 0 10 14" fill="none" xmlns="http://www.w3.org/2000/svg">
<path d="M2.98822 5.44905C2.91266 5.01373 2.49852 4.72209 2.0632 4.79764C1.62788 4.87319 1.33623 5.28734 1.41178 5.72266L2.98822 5.44905ZM8.5947 5.67781C8.64548 5.23891 8.33085 4.84194 7.89195 4.79116C7.45305 4.74037 7.05609 5.05501 7.0053 5.4939L8.5947 5.67781ZM1 2.7C0.558172 2.7 0.2 3.05817 0.2 3.5C0.2 3.94183 0.558172 4.3 1 4.3V2.7ZM9 4.3C9.44183 4.3 9.8 3.94183 9.8 3.5C9.8 3.05817 9.44183 2.7 9 2.7V4.3ZM3.4 1V0.2C2.95817 0.2 2.6 0.558172 2.6 1L3.4 1ZM6.6 1H7.4C7.4 0.558172 7.04183 0.2 6.6 0.2V1ZM7.10241 11.6149L6.30771 11.523L7.10241 11.6149ZM3.25612 11.671L2.4679 11.8078L3.25612 11.671ZM1.41178 5.72266L2.4679 11.8078L4.04434 11.5342L2.98822 5.44905L1.41178 5.72266ZM7.89711 11.7069L8.5947 5.67781L7.0053 5.4939L6.30771 11.523L7.89711 11.7069ZM1 4.3H3.4V2.7H1V4.3ZM4.2 3.5V1H2.6V3.5H4.2ZM3.4 1.8H6.6V0.2H3.4V1.8ZM3.4 4.3H6.6V2.7H3.4V4.3ZM6.6 4.3H9V2.7H6.6V4.3ZM5.8 1V3.5H7.4V1H5.8ZM4.24139 13.3H5.2V11.7H4.24139V13.3ZM5.2 13.3H6.10903V11.7H5.2V13.3ZM6.30771 11.523C6.29604 11.6238 6.2106 11.7 6.10903 11.7V13.3C7.0231 13.3 7.79204 12.6149 7.89711 11.7069L6.30771 11.523ZM2.4679 11.8078C2.61759 12.6702 3.36604 13.3 4.24139 13.3V11.7C4.14413 11.7 4.06097 11.63 4.04434 11.5342L2.4679 11.8078Z" fill="black"/>
</svg>
